<?xml version="1.0" encoding="UTF-8" standalone="no"?><!DOCTYPE svg PUBLIC "-//W3C//DTD SVG 1.1//EN" "http://www.w3.org/Graphics/SVG/1.1/DTD/svg11.dtd"><svg width="100%" height="100%" viewBox="0 0 289 289" version="1.1" xmlns="http://www.w3.org/2000/svg" xmlns:xlink="http://www.w3.org/1999/xlink" xml:space="preserve" xmlns:serif="http://www.serif.com/" style="fill-rule:evenodd;clip-rule:evenodd;stroke-linecap:round;stroke-linejoin:round;stroke-miterlimit:0;"><circle id="Icon" cx="144.686" cy="144.033" r="141.485"/><clipPath id="_clip1"><circle cx="144.686" cy="144.033" r="141.485"/></clipPath><g clip-path="url(#_clip1)"><g><path d="M86.626,188.192c-0.778,0 -1.715,-0.122 -2.808,-0.365c-1.094,-0.243 -2.182,-0.675 -3.263,-1.295c-1.081,-0.621 -1.975,-1.526 -2.68,-2.717c-0.705,-1.19 -1.057,-2.758 -1.057,-4.703c-0,-2.313 0.536,-5.363 1.607,-9.148c1.072,-3.786 2.435,-8.329 4.089,-13.629c1.264,-4.06 2.498,-8.199 3.701,-12.419c1.203,-4.22 2.2,-8.493 2.99,-12.821c0.79,-4.328 1.185,-8.63 1.185,-12.906c-0,-2.797 -0.121,-5.314 -0.363,-7.553c-0.243,-2.238 -0.832,-4.008 -1.769,-5.311c-0.936,-1.302 -2.426,-1.954 -4.47,-1.954c-1.946,0 -3.613,0.56 -5,1.681c-1.386,1.12 -2.53,2.574 -3.43,4.363c-0.9,1.788 -1.556,3.704 -1.97,5.748c-0.413,2.043 -0.62,3.989 -0.62,5.837c0,2.672 0.401,4.87 1.203,6.595c-3.086,0 -5.285,-0.802 -6.598,-2.407c-1.312,-1.604 -1.968,-3.525 -1.968,-5.761c0,-2.238 0.535,-4.5 1.605,-6.786c1.07,-2.285 2.547,-4.395 4.432,-6.328c1.884,-1.934 4.054,-3.49 6.51,-4.669c2.456,-1.18 5.07,-1.769 7.841,-1.769c4.669,-0 8.176,1.787 10.521,5.361c2.346,3.575 3.518,8.45 3.518,14.625c0,5.229 -0.723,10.733 -2.17,16.511c-1.448,5.778 -3.12,11.608 -5.017,17.49c-1.022,3.215 -2.05,6.398 -3.084,9.549c-1.034,3.151 -1.898,6.143 -2.59,8.976c-0.693,2.832 -1.039,5.439 -1.039,7.819c-0,1.387 0.201,2.414 0.603,3.083c0.402,0.67 1.199,1.004 2.391,1.004c1.872,0 3.921,-0.851 6.146,-2.554c2.225,-1.702 4.481,-4 6.767,-6.894c2.286,-2.894 4.494,-6.104 6.622,-9.631c2.128,-3.527 4.08,-7.144 5.856,-10.853c1.775,-3.709 3.259,-7.236 4.451,-10.58c1.192,-3.344 1.946,-6.232 2.261,-8.664c2.528,0 4.374,0.669 5.54,2.005c1.166,1.337 1.748,2.6 1.748,3.791c0,1.023 -0.42,2.63 -1.26,4.821c-0.84,2.19 -1.941,4.854 -3.302,7.99c-1.118,2.674 -2.261,5.525 -3.427,8.553c-1.167,3.028 -2.146,6.044 -2.937,9.047c-0.79,3.003 -1.185,5.843 -1.185,8.518c-0,1.41 0.188,2.505 0.565,3.283c0.376,0.779 1.186,1.168 2.427,1.168c2.043,0 4.408,-1.027 7.096,-3.082c2.687,-2.055 5.466,-4.864 8.336,-8.428c2.87,-3.563 5.667,-7.577 8.391,-12.04c2.724,-4.463 5.18,-9.115 7.369,-13.956c2.189,-4.841 3.934,-9.596 5.235,-14.266c1.301,-4.67 1.952,-8.963 1.952,-12.879c0,-3.769 -0.602,-6.505 -1.805,-8.207c-1.203,-1.703 -2.765,-2.845 -4.684,-3.428c1.117,-1.872 2.301,-3.239 3.553,-4.101c1.252,-0.863 2.388,-1.294 3.408,-1.294c1.58,0 3.154,1.015 4.721,3.045c1.568,2.03 2.352,5.196 2.352,9.5c-0,3.965 -0.748,8.488 -2.244,13.571c-1.496,5.083 -3.526,10.366 -6.092,15.851c-2.565,5.484 -5.496,10.811 -8.791,15.979c-3.295,5.168 -6.76,9.831 -10.395,13.99c-3.635,4.159 -7.251,7.472 -10.85,9.941c-3.598,2.469 -6.965,3.703 -10.102,3.703c-1.554,0 -3.068,-0.322 -4.539,-0.966c-1.471,-0.644 -2.675,-1.604 -3.612,-2.88c-0.937,-1.275 -1.406,-2.862 -1.406,-4.759c0,-1.022 0.171,-2.264 0.512,-3.726c0.342,-1.461 0.781,-3.033 1.316,-4.716c-3.673,5.013 -7.413,9.107 -11.22,12.283c-3.807,3.176 -7.498,4.764 -11.073,4.764Z" style="fill:#fff;"/><path d="M175.893,188.192c-4.157,0 -7.293,-0.693 -9.408,-2.078c-2.115,-1.386 -3.185,-3.684 -3.209,-6.894c0,-0.388 0.255,-0.582 0.763,-0.582c0.56,0 1.502,0.177 2.828,0.53c1.325,0.352 3.86,0.529 7.605,0.529c6.322,-0 12.158,-0.699 17.508,-2.098c5.35,-1.398 9.989,-3.307 13.917,-5.728c3.928,-2.421 6.974,-5.145 9.138,-8.174c2.164,-3.028 3.247,-6.16 3.247,-9.395c-0,-2.944 -0.845,-5.309 -2.535,-7.097c-1.69,-1.787 -3.916,-3.149 -6.676,-4.086c-2.761,-0.936 -5.764,-1.563 -9.01,-1.879c-3.246,-0.316 -6.45,-0.475 -9.611,-0.475c-1.386,0 -2.785,0.019 -4.196,0.055c-1.41,0.037 -2.736,0.055 -3.976,0.055c-1.654,5.789 -3.272,11.663 -4.853,17.621c-1.581,5.959 -3.211,11.759 -4.889,17.401c-1.944,0 -3.596,-0.534 -4.956,-1.604c-1.361,-1.069 -2.041,-2.37 -2.041,-3.902c-0,-0.803 0.164,-1.77 0.492,-2.901c0.329,-1.131 0.675,-2.256 1.04,-3.373c0.438,-1.435 1.197,-3.831 2.279,-7.188c1.082,-3.357 2.389,-7.297 3.922,-11.821c1.533,-4.524 3.23,-9.273 5.091,-14.248c1.861,-4.974 3.782,-9.845 5.764,-14.611c1.982,-4.767 3.921,-9.011 5.818,-12.732c-3.015,0.558 -5.532,1.3 -7.552,2.224c-2.019,0.925 -3.6,1.752 -4.743,2.483c-1.143,0.73 -1.982,1.095 -2.518,1.095c-0.389,-0 -0.881,-0.195 -1.476,-0.583c-0.595,-0.389 -1.13,-0.851 -1.604,-1.385c-0.474,-0.535 -0.711,-1.009 -0.711,-1.421c3.745,-1.556 7.647,-2.955 11.708,-4.195c4.061,-1.24 8.984,-1.86 14.771,-1.86c2.481,-0 5.216,0.2 8.206,0.601c2.99,0.402 5.835,1.204 8.534,2.408c2.699,1.204 4.917,2.967 6.656,5.289c1.738,2.322 2.608,5.404 2.608,9.246c-0,3.431 -0.736,6.369 -2.209,8.814c-1.472,2.445 -3.412,4.488 -5.821,6.13c-2.408,1.641 -5.035,2.954 -7.881,3.939c-2.846,0.984 -5.656,1.731 -8.429,2.242c5.11,0.388 9.277,1.208 12.501,2.46c3.223,1.252 5.704,2.73 7.442,4.432c1.739,1.703 2.93,3.485 3.574,5.346c0.644,1.861 0.966,3.655 0.966,5.382c0,4.256 -1.106,8.098 -3.32,11.527c-2.213,3.429 -5.125,6.42 -8.736,8.974c-3.611,2.554 -7.562,4.688 -11.854,6.402c-4.292,1.715 -8.554,2.998 -12.784,3.849c-4.231,0.851 -8.024,1.276 -11.38,1.276Zm7.185,-50.376c4.038,-0.146 8.039,-0.608 12.003,-1.386c3.963,-0.778 7.569,-1.988 10.816,-3.63c3.247,-1.643 5.856,-3.783 7.827,-6.422c1.97,-2.639 2.955,-5.917 2.955,-9.835c0,-3.696 -0.912,-6.542 -2.736,-8.537c-1.824,-1.995 -4.182,-3.382 -7.075,-4.16c-2.892,-0.778 -5.968,-1.167 -9.226,-1.167l-0.769,-0c-0.244,-0 -0.5,0.024 -0.768,0.073c-2.579,5.035 -4.926,10.55 -7.043,16.546c-2.116,5.997 -4.111,12.169 -5.984,18.518Z" style="fill:#fff;"/></g></g><circle cx="144.686" cy="144.033" r="141.485" style="fill:none;stroke:#fff;stroke-width:5px;"/></svg>